<?xml version="1.0" standalone="no"?><!DOCTYPE svg PUBLIC "-//W3C//DTD SVG 1.1//EN" "http://www.w3.org/Graphics/SVG/1.1/DTD/svg11.dtd"><svg t="1514192815236" class="icon" style="" viewBox="0 0 1024 1024" version="1.1" xmlns="http://www.w3.org/2000/svg" p-id="2612" xmlns:xlink="http://www.w3.org/1999/xlink" width="200" height="200"><defs><style type="text/css"></style></defs><path d="M984.064 312.32c-25.6-61.44-62.464-115.712-109.568-162.816-47.104-47.104-101.376-83.968-162.816-109.568C648.192 13.312 580.608 0 512 0S375.808 13.312 312.32 39.936c-61.44 25.6-115.712 62.464-162.816 109.568-47.104 47.104-83.968 101.376-109.568 162.816C13.312 375.808 0 443.392 0 512c0 68.608 13.312 136.192 39.936 199.68 25.6 61.44 62.464 115.712 109.568 162.816 47.104 47.104 101.376 83.968 162.816 109.568 63.488 26.624 130.048 39.936 199.68 39.936s136.192-13.312 199.68-39.936c61.44-25.6 115.712-62.464 162.816-109.568 47.104-47.104 83.968-101.376 109.568-162.816 26.624-63.488 39.936-130.048 39.936-199.68C1024 443.392 1010.688 375.808 984.064 312.32zM512 953.344c-102.4 0-196.608-34.816-271.36-93.184 1.024-3.072 2.048-6.144 2.048-10.24l0 0 1.024 0C259.072 720.896 368.64 620.544 503.808 616.448c3.072 0 6.144 0 8.192 0 3.072 0 6.144 0 8.192 0C655.36 620.544 764.928 720.896 780.288 849.92l1.024 0 0 0c0 3.072 1.024 6.144 2.048 9.216C708.608 918.528 614.4 953.344 512 953.344zM343.04 382.976c0-92.16 75.776-166.912 168.96-166.912 93.184 0 168.96 74.752 168.96 166.912 0 92.16-75.776 166.912-168.96 166.912C418.816 549.888 343.04 475.136 343.04 382.976zM841.728 804.864c-24.576-103.424-98.304-188.416-195.584-229.376 62.464-41.984 103.424-112.64 103.424-192.512 0-129.024-106.496-233.472-237.568-233.472-131.072 0-237.568 104.448-237.568 233.472 0 79.872 40.96 150.528 103.424 192.512-97.28 40.96-171.008 125.952-195.584 229.376C113.664 727.04 70.656 624.64 70.656 512 70.656 268.288 268.288 70.656 512 70.656S953.344 268.288 953.344 512C953.344 624.64 910.336 727.04 841.728 804.864z" p-id="2613" fill="#ffffff"></path></svg>