<svg xmlns="http://www.w3.org/2000/svg" viewBox="0 0 853 349"><g fill="none" fill-rule="evenodd"><path fill="#FFF" d="M108 0c59.646753 0 108 48.353247 108 108s-48.353247 108-108 108S0 167.646753 0 108 48.353247 0 108 0zm.5 38c38.936075 0 70.5 31.5639251 70.5 70.5 0 38.936075-31.563925 70.5-70.5 70.5-38.9360749 0-70.5-31.563925-70.5-70.5C38 69.5639251 69.5639251 38 108.5 38z" opacity=".13"/><circle cx="175" cy="214" r="4" fill="#000" fill-opacity="0" stroke="#FFF" stroke-opacity=".3"/><path fill="#FFF" d="M732.5 108c66.550312 0 120.5 53.949688 120.5 120.5 0 66.550312-53.949688 120.5-120.5 120.5-66.550312 0-120.5-53.949688-120.5-120.5 0-66.550312 53.949688-120.5 120.5-120.5zm0 59c33.965512 0 61.5 27.534488 61.5 61.5 0 33.965512-27.534488 61.5-61.5 61.5-33.965512 0-61.5-27.534488-61.5-61.5 0-33.965512 27.534488-61.5 61.5-61.5zM519 134c17.673112 0 32 14.326888 32 32s-14.326888 32-32 32-32-14.326888-32-32 14.326888-32 32-32zm0 10.24c12.017716 0 21.76 9.742284 21.76 21.76 0 12.017716-9.742284 21.76-21.76 21.76-12.017716 0-21.76-9.742284-21.76-21.76 0-12.017716 9.742284-21.76 21.76-21.76z" opacity=".13"/></g></svg>